# xmcd
#
# Track frame offsets: 
#        180
#        16126
#        31836
#        53477
#        67249
#        81046
#        95968
#        112749
#        134765
#        144553
#        160099
#
# Disc length: 2379 seconds
#
# Revision: 0
# Processed by: cddbd v1.4PL0 Copyright (c) Steve Scherf et al.
# Submitted via: ExactAudioCopy v0.90b4
#
DISCID=8f09490b
DTITLE=Honeyboy Turner's - Preachin' the blues
DYEAR=1900
DGENRE=Blues
TTITLE0=Said you love me
TTITLE1=Need him and weep
TTITLE2=Same old story
TTITLE3=Love handles
TTITLE4=Jump "Honeyboy" jump
TTITLE5=If you leave me
TTITLE6=Gig money blues
TTITLE7=Drinks for two
TTITLE8=Omaha bones
TTITLE9=Heed what I say
TTITLE10=I'm going out
EXTD=
EXTT0=
EXTT1=
EXTT2=
EXTT3=
EXTT4=
EXTT5=
EXTT6=
EXTT7=
EXTT8=
EXTT9=
EXTT10=
PLAYORDER=
